<?xml version="1.0" standalone="no"?>
<!DOCTYPE svg PUBLIC "-//W3C//DTD SVG 20010904//EN"
 "http://www.w3.org/TR/2001/REC-SVG-20010904/DTD/svg10.dtd">
<svg version="1.0" xmlns="http://www.w3.org/2000/svg"
 width="128.000000pt" height="128.000000pt" viewBox="0 0 128.000000 128.000000"
 preserveAspectRatio="xMidYMid meet">
<metadata>
Created by potrace 1.14, written by Peter Selinger 2001-2017
</metadata>
<g transform="translate(0.000000,128.000000) scale(0.100000,-0.100000)"
fill="#000000" stroke="none">
<path d="M615 1270 c-3 -5 -4 -14 -1 -19 13 -20 -6 -39 -34 -36 -21 3 -68 -19
-190 -89 -88 -51 -170 -100 -181 -109 -14 -12 -19 -30 -20 -64 0 -27 0 -221 0
-432 0 -319 2 -386 14 -398 21 -22 852 -22 873 -1 12 12 15 80 15 404 0 214 0
410 -1 435 l0 47 -172 101 c-126 75 -181 102 -209 104 -41 2 -51 13 -44 47 3
16 -1 20 -20 20 -13 0 -27 -4 -30 -10z"/>
</g>
</svg>
