<?xml version="1.0" standalone="no"?>
<!DOCTYPE svg PUBLIC "-//W3C//DTD SVG 20010904//EN"
 "http://www.w3.org/TR/2001/REC-SVG-20010904/DTD/svg10.dtd">
<svg version="1.0" xmlns="http://www.w3.org/2000/svg"
 width="128.000000pt" height="128.000000pt" viewBox="0 0 128.000000 128.000000"
 preserveAspectRatio="xMidYMid meet">
<metadata>
Created by potrace 1.14, written by Peter Selinger 2001-2017
</metadata>
<g transform="translate(0.000000,128.000000) scale(0.100000,-0.100000)"
fill="#000000" stroke="none">
<path d="M639 1278 c-5 -14 -4 -58 1 -58 4 0 7 14 6 30 -1 26 -3 36 -7 28z"/>
<path d="M633 1190 c-1 -11 2 -20 5 -20 4 0 8 9 9 20 1 11 -2 20 -5 20 -4 0
-8 -9 -9 -20z"/>
<path d="M264 1058 l-80 -83 1 -357 1 -356 77 -78 78 -78 127 -1 c94 -2 133 2
150 12 19 12 26 12 39 2 10 -9 57 -13 146 -14 l132 -1 80 78 79 78 1 358 1
357 -80 83 -81 83 -145 -4 c-80 -3 -149 -5 -155 -5 -5 0 -73 2 -150 5 l-140 4
-81 -83z"/>
</g>
</svg>
